<svg width="646" height="464" viewBox="0 0 646 464" fill="none" xmlns="http://www.w3.org/2000/svg">
<path opacity="0.3" d="M439.88 29.2881H393.728V46.4789H439.88V29.2881Z" fill="#FF8F00"/>
<path opacity="0.3" d="M516.587 0H470.435V17.1908H516.587V0Z" fill="#FF8F00"/>
<path opacity="0.3" d="M519.77 53.1643H473.618V70.3551H519.77V53.1643Z" fill="#FF8F00"/>
<path opacity="0.3" d="M372.084 72.9019H325.932V90.0927H372.084V72.9019Z" fill="#FF8F00"/>
<path opacity="0.3" d="M357.443 143.575H311.291V160.766H357.443V143.575Z" fill="#FF8F00"/>
<path opacity="0.3" d="M427.148 141.984H380.996V159.174H427.148V141.984Z" fill="#FF8F00"/>
<path d="M470.435 8.487L439.88 37.4854L473.618 61.7598" stroke="#3F3D56" stroke-miterlimit="10"/>
<path d="M393.728 37.4856L349.008 72.9019" stroke="#3F3D56" stroke-miterlimit="10"/>
<path d="M334.367 143.562L349.008 90.0926L404.072 141.983" stroke="#3F3D56" stroke-miterlimit="10"/>
<path opacity="0.3" d="M128.589 46.9979H82.4369V64.1887H128.589V46.9979Z" fill="#FF8F00"/>
<path opacity="0.3" d="M205.296 17.7098H159.144V34.9006H205.296V17.7098Z" fill="#FF8F00"/>
<path opacity="0.3" d="M208.479 70.8741H162.327V88.0649H208.479V70.8741Z" fill="#FF8F00"/>
<path opacity="0.3" d="M60.7933 90.6117H14.6414V107.803H60.7933V90.6117Z" fill="#FF8F00"/>
<path opacity="0.3" d="M46.1519 161.285H0V178.476H46.1519V161.285Z" fill="#FF8F00"/>
<path opacity="0.3" d="M115.857 159.693H69.7052V176.884H115.857V159.693Z" fill="#FF8F00"/>
<path d="M159.144 26.1968L128.589 55.1951L162.327 79.4695" stroke="#3F3D56" stroke-miterlimit="10"/>
<path d="M82.4369 55.1954L37.7173 90.6117" stroke="#3F3D56" stroke-miterlimit="10"/>
<path d="M23.076 161.272L37.717 107.802L92.7812 159.693" stroke="#3F3D56" stroke-miterlimit="10"/>
<path d="M208.479 79.4695H260.818" stroke="#3F3D56" stroke-miterlimit="10"/>
<path d="M291.585 70.6713H237.324V87.8098H291.585V70.6713Z" fill="#FF8F00"/>
<path d="M291.656 79.2405H325.932" stroke="#3F3D56" stroke-miterlimit="10"/>
<path d="M237.064 79.2405L205.296 26.197" stroke="#3F3D56" stroke-miterlimit="10"/>
<path d="M394.683 464C533.481 464 646 438.934 646 408.014C646 377.094 533.481 352.028 394.683 352.028C255.884 352.028 143.365 377.094 143.365 408.014C143.365 438.934 255.884 464 394.683 464Z" fill="#F2F2F2"/>
<path d="M511.193 223.721L486.686 346.53H481.381L480.798 345.623L479.108 342.993L500.33 228.269L503.551 226.92L511.193 223.721Z" fill="#47465A"/>
<path opacity="0.1" d="M503.551 226.92L480.798 345.623L479.108 342.993L500.33 228.269L503.551 226.92Z" fill="black"/>
<path d="M548.08 391.005L541.779 393.036L540.248 393.532L538.226 388.983L503.551 230.776L507.156 229.967L514.731 228.269L548.08 391.005Z" fill="#47465A"/>
<path opacity="0.1" d="M541.779 393.036L540.248 393.532L538.227 388.983L503.551 230.776L507.156 229.967L541.779 393.036Z" fill="black"/>
<path d="M247.682 223.721L242.124 382.918L235.755 384.333L235.303 384.434L233.534 381.15L237.071 225.237L240.474 224.752L247.682 223.721Z" fill="#47465A"/>
<path opacity="0.1" d="M240.474 224.752L235.755 384.333L235.303 384.434L233.534 381.15L237.071 225.237L240.474 224.752Z" fill="black"/>
<path d="M280.779 439.27L274.19 440.406L273.452 440.533L271.431 436.237L239.345 228.269L240.27 227.988L245.156 226.5L280.779 439.27Z" fill="#47465A"/>
<path opacity="0.1" d="M274.19 440.406L273.452 440.533L271.431 436.237L239.345 228.269L240.27 227.988L274.19 440.406Z" fill="black"/>
<path d="M420.24 210.833L444.773 242.186C445.614 243.261 446.717 244.101 447.976 244.626C449.235 245.152 450.608 245.344 451.963 245.185L552.672 233.388C554.608 233.162 556.394 232.231 557.69 230.775C558.986 229.318 559.702 227.436 559.702 225.486V202.242L420.24 210.833Z" fill="#7A799C"/>
<path d="M502.856 215.887H509.678V225.734C509.678 226.406 509.411 227.051 508.935 227.527C508.46 228.002 507.815 228.269 507.143 228.269H505.391C504.719 228.269 504.074 228.002 503.599 227.527C503.123 227.051 502.856 226.406 502.856 225.734V215.887Z" fill="#47465A"/>
<path d="M239.345 230.796L263.878 262.149C264.718 263.224 265.821 264.064 267.081 264.589C268.34 265.115 269.713 265.307 271.068 265.148L371.776 253.351C373.713 253.125 375.498 252.194 376.794 250.738C378.09 249.281 378.806 247.399 378.806 245.449V222.204L239.345 230.796Z" fill="#7A799C"/>
<path d="M321.961 235.85H328.782V245.697C328.782 246.369 328.515 247.014 328.04 247.49C327.564 247.965 326.92 248.232 326.248 248.232H324.495C323.823 248.232 323.178 247.965 322.703 247.49C322.228 247.014 321.961 246.369 321.961 245.697V235.85H321.961Z" fill="#47465A"/>
<path d="M267.53 246.675L567.089 211.775C568.03 211.666 568.91 211.255 569.6 210.606C570.29 209.956 570.751 209.101 570.917 208.167C571.082 207.234 570.942 206.273 570.518 205.425C570.093 204.578 569.407 203.89 568.561 203.464L514.975 176.51C504.421 171.201 492.57 169.017 480.817 170.216L214.682 197.357C213.731 197.457 212.827 197.822 212.073 198.412C211.32 199.002 210.747 199.792 210.422 200.692C210.097 201.592 210.031 202.565 210.233 203.501C210.435 204.436 210.897 205.295 211.565 205.981L242.556 237.783C245.763 241.075 249.682 243.587 254.011 245.129C258.34 246.67 262.965 247.199 267.53 246.675Z" fill="#47465A"/>
<path d="M600.045 207.045L596.841 205.274C596.841 205.274 593.382 207.821 590.564 218.55C587.746 229.28 595.83 218.667 595.83 218.667L599.368 211.339L600.045 207.045Z" fill="#47465A"/>
<path d="M565.765 305.341C565.765 305.341 562.481 320.756 560.965 325.051C560.222 327.154 556.635 329.077 552.658 330.547C549.132 331.861 545.482 332.814 541.764 333.39C537.469 333.896 482.392 325.304 455.611 319.492C437.57 315.578 435.238 311.087 435.637 308.576C435.765 307.828 436.124 307.139 436.663 306.605C436.663 306.605 463.191 288.663 472.539 280.072C481.886 271.48 500.33 278.303 520.541 281.84C540.753 285.378 565.765 305.341 565.765 305.341Z" fill="#47465A"/>
<path d="M596.841 205.274C596.841 205.274 609.221 213.36 567.534 230.038C567.534 230.038 544.876 242.816 547.825 295.452C547.965 297.819 548.686 300.115 549.923 302.137C554.224 309.212 563.441 327.123 548.08 329.347V333.39C548.08 333.39 575.871 319.492 578.903 307.615C581.935 295.739 592.041 229.785 597.094 223.721C602.147 217.656 605.431 208.054 596.841 205.274Z" fill="#47465A"/>
<path opacity="0.1" d="M552.658 330.547C549.132 331.861 545.482 332.814 541.764 333.39C537.469 333.896 482.392 325.304 455.611 319.492C437.57 315.578 435.238 311.087 435.637 308.576C447.496 312.631 486.005 325.504 499.824 326.568C516.247 327.831 547.62 331.343 549.998 328.955C550.912 328.036 551.85 329.006 552.658 330.547Z" fill="black"/>
<path d="M408.366 435.732L432.368 326.062C432.368 326.062 436.663 314.438 446.516 314.944L455.611 319.492C455.611 319.492 440.452 315.954 437.168 327.578C433.883 339.202 412.914 435.732 412.914 435.732H408.366Z" fill="#47465A"/>
<path d="M465.97 385.698L475.57 318.734H479.865L470.012 385.698H465.97Z" fill="#47465A"/>
<path d="M557.933 451.146L548.838 346.53C548.838 346.53 548.838 337.686 553.386 333.39C557.933 329.094 572.614 316.84 572.614 316.84C572.614 316.84 576.377 315.954 579.408 324.546C582.44 333.138 603.41 419.054 603.41 419.054L599.367 420.823L573.345 321.766L555.407 338.697C555.407 338.697 551.87 345.014 553.638 350.826C555.407 356.638 561.976 451.146 561.976 451.146H557.933Z" fill="#47465A"/>
<path d="M529.89 330.863L552.628 337.433L557.681 332.632L544.543 330.863H529.89Z" fill="#47465A"/>
<path d="M327.748 146.422L331.435 201.736L412.029 193.903L408.822 139.831C408.779 139.107 408.592 138.399 408.271 137.748C407.951 137.097 407.503 136.517 406.955 136.042C406.406 135.567 405.769 135.207 405.079 134.982C404.389 134.757 403.662 134.673 402.939 134.734L332.718 140.641C331.297 140.761 329.98 141.434 329.05 142.515C328.121 143.596 327.653 145 327.748 146.422Z" fill="#7A799C"/>
<path d="M439.063 209.822L358.721 218.589L355.689 218.919L332.193 203.758V200.473L412.029 193.281L439.063 209.822Z" fill="#7A799C"/>
<path opacity="0.1" d="M358.721 218.589L355.689 218.919L332.193 203.758V200.816L358.721 218.589Z" fill="black"/>
<path d="M333.203 145.89L335.983 195.166L406.724 188.596L404.197 140.584L333.203 145.89Z" fill="#65CF9E"/>
<path opacity="0.1" d="M375.396 208.812L383.986 214.624L410.008 212.096L401.165 206.537L375.396 208.812Z" fill="black"/>
<path d="M340.278 201.736L351.141 209.822L420.62 203.252L408.24 195.166L340.278 201.736Z" fill="#65CF9E"/>
<path d="M514.857 127.065H463.569V178.362H514.857V127.065Z" fill="#FF6584"/>
<path opacity="0.1" d="M514.857 127.065H463.569V178.362H514.857V127.065Z" fill="black"/>
<path d="M481.232 150.804C481.232 150.804 488.467 170.402 481.232 174.02C473.997 177.639 507.158 174.02 507.158 174.02L516.503 166.483C516.503 166.483 495.401 160.452 498.415 146.583C501.43 132.713 481.232 150.804 481.232 150.804Z" fill="#FBBEBE"/>
<path opacity="0.1" d="M481.232 150.804C481.232 150.804 488.467 170.402 481.232 174.02C473.997 177.639 507.158 174.02 507.158 174.02L516.503 166.483C516.503 166.483 495.401 160.452 498.415 146.583C501.43 132.713 481.232 150.804 481.232 150.804Z" fill="black"/>
<path d="M421.845 347.391C421.845 347.391 448.976 385.683 444.455 396.236C439.933 406.789 442.344 413.423 433.301 417.041C424.257 420.659 421.845 427.292 429.683 426.991C437.521 426.689 447.771 424.579 449.278 421.865C450.785 419.152 454.403 406.186 459.527 404.377C464.652 402.568 474.299 395.633 467.365 387.191C460.432 378.749 442.962 347.652 444.311 344.507C445.66 341.361 421.845 347.391 421.845 347.391Z" fill="#FBBEBE"/>
<path d="M478.519 271.711C478.519 271.711 422.448 275.329 407.978 288.897C393.508 302.466 420.639 353.12 423.654 353.723C426.669 354.326 450.182 351.914 449.278 345.281C448.374 338.647 432.396 311.511 432.396 311.511C432.396 311.511 453.197 303.973 464.652 302.164C476.108 300.355 488.769 291.913 488.769 291.913L478.519 271.711Z" fill="#9493B6"/>
<path d="M452.895 263.269C452.895 263.269 453.8 296.737 462.241 297.943C470.681 299.149 462.241 272.314 462.241 272.314L461.939 262.063L452.895 263.269Z" fill="#FBBEBE"/>
<path d="M478.519 175.528C478.519 175.528 462.843 171.005 459.829 183.066C456.814 195.126 455.91 236.735 455.91 236.735L450.484 269.902C450.484 269.902 460.432 266.887 462.542 268.394L475.203 252.414L478.519 175.528Z" fill="#FF8F00"/>
<path opacity="0.1" d="M478.519 175.528C478.519 175.528 462.843 171.005 459.829 183.066C456.814 195.126 455.91 236.735 455.91 236.735L450.484 269.902C450.484 269.902 460.432 266.887 462.542 268.394L475.203 252.414L478.519 175.528Z" fill="black"/>
<path d="M499.938 353.812C499.938 353.812 510.474 374.527 516.804 374.226C523.135 373.924 529.164 370.005 532.179 382.367C535.193 394.729 531.576 391.412 535.193 398.649C538.811 405.885 539.414 418.548 532.48 421.564C525.547 424.579 519.216 424.88 518.914 421.564C518.613 418.247 524.944 418.247 517.709 406.488C510.474 394.729 495.099 373.321 488.769 371.211C482.438 369.1 499.938 353.812 499.938 353.812Z" fill="#FBBEBE"/>
<path d="M527.355 259.349C527.355 259.349 549.06 295.531 534.892 306.084C520.723 316.637 478.519 336.838 478.519 336.838C478.519 336.838 501.129 352.215 502.334 357.341C503.54 362.467 491.482 376.337 487.261 376.638C483.041 376.94 470.681 362.768 457.417 359.15C444.153 355.532 436.014 329.602 450.484 319.953C464.954 310.305 478.519 294.325 478.519 294.325L474.301 271.111L527.355 259.349Z" fill="#9493B6"/>
<path d="M508.541 138.689C508.541 151.511 495.409 162.111 482.589 162.111C476.433 162.111 470.529 159.665 466.175 155.311C461.822 150.957 459.377 145.051 459.377 138.894C459.377 132.737 461.822 126.831 466.175 122.477C470.529 118.124 476.433 115.677 482.589 115.677C495.409 115.677 508.541 125.867 508.541 138.689Z" fill="#FBBEBE"/>
<path d="M488.467 172.211C488.467 172.211 509.268 163.166 509.268 161.96C509.268 160.754 521.326 164.674 524.039 167.086C526.752 169.498 528.26 169.196 530.068 174.02C531.877 178.845 521.025 223.77 521.025 223.77C521.025 223.77 527.054 258.444 530.37 261.761C533.686 265.078 503.54 269.902 503.54 269.902C503.54 269.902 483.644 273.52 480.328 275.028C477.012 276.535 470.983 278.646 472.189 275.028C473.394 271.41 478.519 268.696 469.777 264.173C469.777 264.173 472.792 249.399 469.777 242.766C466.762 236.132 452.895 212.011 464.049 194.523C475.203 177.036 480.328 170.704 480.328 170.704C480.328 170.704 484.247 174.02 488.467 172.211Z" fill="#FF8F00"/>
<path d="M495.099 254.525C495.099 254.525 471.586 264.956 464.501 265.921C457.417 266.887 436.014 272.314 447.771 277.138C459.527 281.963 477.313 274.726 477.313 274.726L502.334 264.173L495.099 254.525Z" fill="#FBBEBE"/>
<path opacity="0.1" d="M520.415 171.286C520.415 171.286 529.098 167.086 531.51 181.86C533.921 196.634 542.362 243.369 531.51 250.304C520.657 257.238 495.636 268.394 495.636 268.394C495.636 268.394 480.865 258.444 487.798 254.826C494.732 251.208 511.312 240.957 513.724 237.338C516.135 233.72 518.572 193.334 514.352 186.701C510.131 180.067 520.415 171.286 520.415 171.286Z" fill="black"/>
<path d="M519.819 167.689C519.819 167.689 531.877 167.086 534.289 181.86C536.701 196.634 545.141 243.369 534.289 250.304C523.436 257.238 498.415 268.394 498.415 268.394C498.415 268.394 483.644 258.444 490.577 254.826C497.511 251.208 514.091 240.957 516.503 237.338C518.915 233.72 514.694 196.031 510.474 189.398C506.253 182.764 519.819 167.689 519.819 167.689Z" fill="#FF8F00"/>
<path d="M476.871 99.8117C473.17 100.315 469.201 101.67 467.339 104.908C466.427 106.492 466.133 108.351 465.431 110.039C463.494 114.696 458.789 117.478 455.393 121.207C450.966 126.066 448.768 133.39 451.379 139.423C452.39 141.759 454.031 143.761 455.276 145.981C458.75 152.175 458.935 159.615 459.034 166.716L459.228 180.679C459.258 182.811 459.281 184.986 458.639 187.02C457.998 189.053 456.564 190.957 454.531 191.6C456.774 192.377 459.213 192.383 461.459 191.616C463.706 190.848 465.631 189.352 466.93 187.365C467.208 189.123 467.05 190.923 466.47 192.606C465.89 194.29 464.906 195.805 463.605 197.019C469.131 195.717 473.766 191.697 476.686 186.826C479.606 181.956 480.96 176.291 481.566 170.644C481.887 167.658 482 164.57 481.057 161.718C480.393 159.709 479.234 157.909 478.134 156.102C475.298 151.444 472.744 146.49 471.83 141.113C470.916 135.736 471.833 129.837 475.324 125.647C476.664 124.028 478.352 122.732 480.262 121.856C482.172 120.98 484.255 120.546 486.356 120.587C488.457 120.669 490.501 121.288 492.294 122.386C494.087 123.483 495.569 125.023 496.596 126.858C497.403 128.376 498.55 130.433 500.185 129.9C500.487 129.772 500.783 129.627 501.069 129.466C502.892 128.636 504.962 130.273 505.765 132.107C508.3 137.892 503.63 144.207 503.147 150.505C502.699 156.363 505.964 161.888 509.868 166.279C516.61 173.832 525.417 179.244 535.201 181.846C533.768 181.486 532.484 180.688 531.526 179.563C535.504 179.722 539.486 179.389 543.382 178.569C539.14 175.372 534.868 172.148 531.327 168.189C527.786 164.229 524.981 159.439 524.217 154.182C523.193 147.126 525.82 139.486 522.816 133.021C520.07 127.11 513.259 123.807 510.772 117.782C508.245 111.663 506.608 106.347 499.918 103.683C492.618 100.775 484.759 98.738 476.871 99.8117Z" fill="#FF6584"/>
</svg>
