<svg width="17" height="18" viewBox="0 0 17 18" fill="none" xmlns="http://www.w3.org/2000/svg">
<path d="M6.76941 7.21785C6.05541 7.21785 5.35745 7.00605 4.76385 6.60926C4.17025 6.21247 3.70769 5.64852 3.43469 4.98876C3.1617 4.32901 3.09055 3.6031 3.23023 2.90289C3.36991 2.20268 3.71416 1.55965 4.21941 1.05514C4.72466 0.550639 5.36821 0.207344 6.06862 0.0686964C6.76904 -0.0699512 7.49484 0.00227958 8.15419 0.276249C8.81354 0.550219 9.37681 1.01361 9.77272 1.6078C10.1686 2.20199 10.3794 2.90026 10.3783 3.61426C10.3755 4.57005 9.99421 5.4858 9.31787 6.16115C8.64152 6.83649 7.7252 7.21644 6.76941 7.21785ZM6.76941 1.07307C6.26681 1.07307 5.7755 1.22211 5.3576 1.50134C4.9397 1.78057 4.61399 2.17745 4.42166 2.64179C4.22932 3.10613 4.17899 3.61708 4.27705 4.11003C4.3751 4.60297 4.61712 5.05577 4.97252 5.41116C5.32791 5.76655 5.78071 6.00858 6.27365 6.10663C6.76659 6.20468 7.27754 6.15436 7.74189 5.96202C8.20623 5.76968 8.60311 5.44397 8.88234 5.02607C9.16157 4.60818 9.31061 4.11686 9.31061 3.61426C9.31061 2.9403 9.04287 2.29393 8.56631 1.81737C8.08974 1.3408 7.44338 1.07307 6.76941 1.07307Z" fill="#ADB4D2"/>
<path d="M7.69832 16.2241C7.58165 16.1074 7.49164 15.9668 7.4345 15.8119C7.37736 15.6571 7.35444 15.4917 7.36733 15.3272H1.06773V12.2415C1.8247 11.4338 2.74284 10.794 3.76272 10.3636C4.78261 9.93321 5.88151 9.72178 6.98828 9.74299H7.37267C7.34816 9.564 7.36528 9.38177 7.42269 9.21047C7.48009 9.03917 7.57625 8.88342 7.70366 8.75534L7.76773 8.69662C7.51681 8.69662 7.23386 8.66459 6.98828 8.66459C5.68587 8.63367 4.39286 8.89255 3.20274 9.42251C2.01263 9.95248 0.955151 10.7403 0.106773 11.729C0.0374655 11.8214 0 11.9338 0 12.0493V15.3272C0 15.6104 0.112492 15.882 0.31273 16.0822C0.512968 16.2824 0.784549 16.3949 1.06773 16.3949H7.84781L7.69832 16.2241Z" fill="#ADB4D2"/>
<path d="M16.9128 11.762L15.8451 11.4363C15.7688 11.1752 15.665 10.9228 15.5355 10.6836L16.0693 9.69058C16.0867 9.65086 16.0909 9.60662 16.0813 9.56435C16.0717 9.52208 16.0488 9.48399 16.0159 9.45568L15.2418 8.68158C15.2126 8.64989 15.1735 8.62897 15.1309 8.62219C15.0883 8.61541 15.0446 8.62317 15.0069 8.64421L14.0246 9.17807C13.7827 9.04209 13.5268 8.9329 13.2612 8.85241L12.9355 7.78469C12.9217 7.74538 12.8955 7.71164 12.8608 7.68853C12.8262 7.66542 12.7849 7.6542 12.7434 7.65656H11.6489C11.6069 7.65607 11.5659 7.66939 11.5321 7.69446C11.4984 7.71953 11.4738 7.75497 11.4621 7.79536L11.1364 8.86309C10.869 8.94089 10.6112 9.04833 10.3677 9.18341L9.39603 8.64955C9.35917 8.62891 9.31641 8.62137 9.27472 8.62816C9.23303 8.63495 9.19487 8.65566 9.16646 8.68692L8.37635 9.45568C8.34705 9.48653 8.32819 9.52581 8.32245 9.56797C8.3167 9.61012 8.32435 9.65301 8.34431 9.69058L8.87818 10.6622C8.73697 10.9029 8.62411 11.159 8.54184 11.4256L7.47411 11.746C7.43373 11.7576 7.39828 11.7822 7.37321 11.816C7.34814 11.8497 7.33482 11.8908 7.33531 11.9328V13.0272C7.33846 13.0658 7.35351 13.1024 7.37837 13.1321C7.40324 13.1617 7.43669 13.1829 7.47411 13.1927L8.54184 13.5184C8.62075 13.7803 8.72816 14.0327 8.86216 14.2711L8.3283 15.2908C8.30793 15.3274 8.30003 15.3695 8.30581 15.411C8.31159 15.4524 8.33073 15.4908 8.36033 15.5204L9.13443 16.2945C9.16467 16.3246 9.20365 16.3445 9.24583 16.3512C9.28801 16.3579 9.33123 16.3511 9.36933 16.3319L10.3677 15.798C10.6052 15.9258 10.8558 16.0278 11.1151 16.1023L11.4354 17.17C11.4485 17.2095 11.4735 17.2441 11.5069 17.2689C11.5404 17.2937 11.5806 17.3077 11.6222 17.3088H12.7167C12.7585 17.3085 12.7991 17.2948 12.8327 17.2699C12.8663 17.2449 12.8911 17.21 12.9035 17.17L13.2292 16.0756C13.485 16.001 13.732 15.899 13.9659 15.7713L14.9749 16.3052C15.012 16.3249 15.0545 16.3319 15.096 16.3251C15.1374 16.3184 15.1755 16.2982 15.2045 16.2678L16.0159 15.5417C16.0378 15.5104 16.0495 15.4731 16.0495 15.435C16.0495 15.3968 16.0378 15.3595 16.0159 15.3282L15.4821 14.3245C15.6117 14.089 15.7155 13.8402 15.7917 13.5825L16.8595 13.2568C16.8998 13.2451 16.9353 13.2205 16.9604 13.1868C16.9854 13.153 16.9987 13.112 16.9983 13.0699V11.9488C17.0032 11.9128 16.9977 11.8761 16.9826 11.843C16.9675 11.81 16.9433 11.7818 16.9128 11.762ZM12.1988 14.2605C11.8457 14.2615 11.5002 14.1577 11.2062 13.9622C10.9121 13.7667 10.6827 13.4882 10.5471 13.1622C10.4115 12.8362 10.3757 12.4772 10.4444 12.1308C10.513 11.7844 10.6829 11.4662 10.9326 11.2165C11.1823 10.9668 11.5005 10.7969 11.8469 10.7283C12.1933 10.6596 12.5523 10.6954 12.8783 10.831C13.2043 10.9666 13.4828 11.196 13.6783 11.49C13.8738 11.7841 13.9776 12.1296 13.9766 12.4827C13.9752 12.9538 13.7874 13.4051 13.4543 13.7382C13.1212 14.0713 12.6699 14.2591 12.1988 14.2605Z" fill="#ADB4D2"/>
</svg>
