<svg width="14" height="14" viewBox="0 0 14 14" fill="none" xmlns="http://www.w3.org/2000/svg">
<path d="M5.44444 0H0.777778C0.571498 0 0.373667 0.0819442 0.227806 0.227806C0.0819442 0.373667 0 0.571498 0 0.777778V5.44444C0 5.65072 0.0819442 5.84855 0.227806 5.99442C0.373667 6.14028 0.571498 6.22222 0.777778 6.22222H5.44444C5.65072 6.22222 5.84855 6.14028 5.99442 5.99442C6.14028 5.84855 6.22222 5.65072 6.22222 5.44444V0.777778C6.22222 0.571498 6.14028 0.373667 5.99442 0.227806C5.84855 0.0819442 5.65072 0 5.44444 0ZM4.66667 4.66667H1.55556V1.55556H4.66667V4.66667ZM13.2222 0H8.55556C8.34928 0 8.15145 0.0819442 8.00558 0.227806C7.85972 0.373667 7.77778 0.571498 7.77778 0.777778V5.44444C7.77778 5.65072 7.85972 5.84855 8.00558 5.99442C8.15145 6.14028 8.34928 6.22222 8.55556 6.22222H13.2222C13.4285 6.22222 13.6263 6.14028 13.7722 5.99442C13.9181 5.84855 14 5.65072 14 5.44444V0.777778C14 0.571498 13.9181 0.373667 13.7722 0.227806C13.6263 0.0819442 13.4285 0 13.2222 0ZM12.4444 4.66667H9.33333V1.55556H12.4444V4.66667ZM5.44444 7.77778H0.777778C0.571498 7.77778 0.373667 7.85972 0.227806 8.00558C0.0819442 8.15145 0 8.34928 0 8.55556V13.2222C0 13.4285 0.0819442 13.6263 0.227806 13.7722C0.373667 13.9181 0.571498 14 0.777778 14H5.44444C5.65072 14 5.84855 13.9181 5.99442 13.7722C6.14028 13.6263 6.22222 13.4285 6.22222 13.2222V8.55556C6.22222 8.34928 6.14028 8.15145 5.99442 8.00558C5.84855 7.85972 5.65072 7.77778 5.44444 7.77778ZM4.66667 12.4444H1.55556V9.33333H4.66667V12.4444ZM10.8889 7.77778C9.17311 7.77778 7.77778 9.17311 7.77778 10.8889C7.77778 12.6047 9.17311 14 10.8889 14C12.6047 14 14 12.6047 14 10.8889C14 9.17311 12.6047 7.77778 10.8889 7.77778ZM10.8889 12.4444C10.031 12.4444 9.33333 11.7468 9.33333 10.8889C9.33333 10.031 10.031 9.33333 10.8889 9.33333C11.7468 9.33333 12.4444 10.031 12.4444 10.8889C12.4444 11.7468 11.7468 12.4444 10.8889 12.4444Z" fill="#ADB4D2"/>
</svg>
