<svg width="14" height="16" viewBox="0 0 14 16" fill="none" xmlns="http://www.w3.org/2000/svg">
<path d="M1.55556 5.44444C1.143 5.44444 0.747335 5.28056 0.455612 4.98883C0.163888 4.69711 0 4.30145 0 3.88889V1.55556C0 1.143 0.163888 0.747335 0.455612 0.455612C0.747335 0.163888 1.143 0 1.55556 0H4.66667C5.07923 0 5.47489 0.163888 5.76661 0.455612C6.05833 0.747335 6.22222 1.143 6.22222 1.55556V3.88889C6.22222 4.30145 6.05833 4.69711 5.76661 4.98883C5.47489 5.28056 5.07923 5.44444 4.66667 5.44444H1.55556ZM1.55556 3.88889H4.66667V1.55556H1.55556V3.88889ZM1.55556 15.5556C1.143 15.5556 0.747335 15.3917 0.455612 15.0999C0.163888 14.8082 0 14.4126 0 14V7.77778C0 7.36522 0.163888 6.96956 0.455612 6.67783C0.747335 6.38611 1.143 6.22222 1.55556 6.22222H4.66667C5.07923 6.22222 5.47489 6.38611 5.76661 6.67783C6.05833 6.96956 6.22222 7.36522 6.22222 7.77778V14C6.22222 14.4126 6.05833 14.8082 5.76661 15.0999C5.47489 15.3917 5.07923 15.5556 4.66667 15.5556H1.55556ZM1.55556 14H4.66667V7.77778H1.55556V14ZM7.77778 14C7.77778 14.4126 7.94167 14.8082 8.23339 15.0999C8.52511 15.3917 8.92077 15.5556 9.33333 15.5556H12.4444C12.857 15.5556 13.2527 15.3917 13.5444 15.0999C13.8361 14.8082 14 14.4126 14 14V12.4444C14 12.0319 13.8361 11.6362 13.5444 11.3445C13.2527 11.0528 12.857 10.8889 12.4444 10.8889H9.33333C8.92077 10.8889 8.52511 11.0528 8.23339 11.3445C7.94167 11.6362 7.77778 12.0319 7.77778 12.4444V14ZM12.4444 14H9.33333V12.4444H12.4444V14ZM9.33333 9.33333C8.92077 9.33333 8.52511 9.16945 8.23339 8.87772C7.94167 8.586 7.77778 8.19034 7.77778 7.77778V1.55556C7.77778 1.143 7.94167 0.747335 8.23339 0.455612C8.52511 0.163888 8.92077 0 9.33333 0H12.4444C12.857 0 13.2527 0.163888 13.5444 0.455612C13.8361 0.747335 14 1.143 14 1.55556V7.77778C14 8.19034 13.8361 8.586 13.5444 8.87772C13.2527 9.16945 12.857 9.33333 12.4444 9.33333H9.33333ZM9.33333 7.77778H12.4444V1.55556H9.33333V7.77778Z" fill="#ADB4D2"/>
</svg>
