<svg width="38" height="64" viewBox="0 0 38 64" fill="none" xmlns="http://www.w3.org/2000/svg">
<path d="M0 44.7131C0.676612 52.3337 6.91699 57.7417 16.417 58.4411V64H21.1853V58.4411C31.563 57.6229 38 51.8674 38 43.3554C38 36.0869 33.6706 31.8811 24.486 29.5131L21.1853 28.6583V11.2777C26.3147 11.7806 29.7755 14.5417 30.6487 18.6651H37.3691C36.6102 11.3509 30.3287 6.10286 21.1853 5.52229V0H16.417V5.63657C7.55245 6.688 1.46752 12.3657 1.46752 20.064C1.46752 26.7109 5.88378 31.4149 13.6328 33.3989L16.4216 34.1394V52.5669C11.1687 51.7897 7.55245 48.9097 6.67926 44.7131H0ZM15.5026 27.1771C10.7344 25.9749 8.18792 23.4057 8.18792 19.7897C8.18792 15.4743 11.4064 12.288 16.417 11.4331V27.4103L15.5026 27.1817V27.1771ZM22.7762 35.7349C28.66 37.2114 31.243 39.6617 31.243 43.8217C31.243 48.8366 27.4668 52.1783 21.1853 52.6857V35.3371L22.7762 35.7303V35.7349Z" fill="#20C997"/>
</svg>
