<svg width="11" height="8" viewBox="0 0 11 8" fill="none" xmlns="http://www.w3.org/2000/svg">
<path d="M3.80936 7.92859C3.69383 7.92868 3.57942 7.90599 3.47267 7.86181C3.36593 7.81763 3.26894 7.75284 3.18726 7.67114L0.257808 4.74168C0.0928186 4.57681 8.24429e-05 4.35315 5.49425e-08 4.1199C-8.23331e-05 3.88666 0.0924958 3.66293 0.257368 3.49794C0.422241 3.33295 0.645902 3.24021 0.87915 3.24013C1.1124 3.24005 1.33612 3.33263 1.50111 3.4975L3.80936 5.80662L9.05057 0.568044C9.21544 0.403172 9.43906 0.310547 9.67222 0.310547C9.90539 0.310547 10.129 0.403172 10.2939 0.568044C10.4587 0.732917 10.5514 0.956532 10.5514 1.1897C10.5514 1.42286 10.4587 1.64648 10.2939 1.81135L4.43145 7.67114C4.34977 7.75284 4.25278 7.81763 4.14604 7.86181C4.03929 7.90599 3.92488 7.92868 3.80936 7.92859Z" fill="#20C997"/>
</svg>
