<svg width="63" height="64" viewBox="0 0 63 64" fill="none" xmlns="http://www.w3.org/2000/svg">
<path d="M21.8182 29.4545C25.1937 29.4545 28.4309 28.1136 30.8177 25.7268C33.2045 23.34 34.5455 20.1028 34.5455 16.7273C34.5455 13.3518 33.2045 10.1146 30.8177 7.72773C28.4309 5.3409 25.1937 4 21.8182 4C18.4427 4 15.2055 5.3409 12.8186 7.72773C10.4318 10.1146 9.09091 13.3518 9.09091 16.7273C9.09091 20.1028 10.4318 23.34 12.8186 25.7268C15.2055 28.1136 18.4427 29.4545 21.8182 29.4545ZM21.8182 29.4545C26.9422 29.4545 31.4196 31.3891 34.604 34.604C36.4923 36.5178 37.9048 38.8484 38.7276 41.408M21.8182 29.4545C11.6364 29.4545 4 37.0909 4 47.2727V60H29.4545M32 49.3702L42.6655 57.4545L60 34.5455" stroke="#20C997" stroke-width="7"/>
</svg>
