<svg width="17" height="17" viewBox="0 0 17 17" fill="none" xmlns="http://www.w3.org/2000/svg">
<path d="M5.77273 7.81818C6.67687 7.81818 7.54399 7.45901 8.18332 6.81968C8.82265 6.18035 9.18182 5.31324 9.18182 4.40909C9.18182 3.50494 8.82265 2.63783 8.18332 1.9985C7.54399 1.35917 6.67687 1 5.77273 1C4.86858 1 4.00146 1.35917 3.36214 1.9985C2.72281 2.63783 2.36364 3.50494 2.36364 4.40909C2.36364 5.31324 2.72281 6.18035 3.36214 6.81968C4.00146 7.45901 4.86858 7.81818 5.77273 7.81818ZM5.77273 7.81818C7.14523 7.81818 8.34455 8.33636 9.1975 9.1975C9.7033 9.71014 10.0816 10.3344 10.302 11.02M5.77273 7.81818C3.04545 7.81818 1 9.86364 1 12.5909V16H7.81818M8.5 13.1527L11.3568 15.3182L16 9.18182" stroke="#ADB4D2" stroke-width="2"/>
</svg>
