<svg width="12" height="12" viewBox="0 0 12 12" fill="none" xmlns="http://www.w3.org/2000/svg">
<path d="M6 2.00004C5.87061 1.99934 5.74209 2.00714 5.62177 2.02299C5.50144 2.03885 5.39169 2.06245 5.2988 2.09245C5.20591 2.12244 5.13171 2.15825 5.08044 2.1978C5.02917 2.23736 5.00182 2.27989 5 2.32297V9.66708C5 9.75538 5.10537 9.84006 5.29291 9.90249C5.48044 9.96492 5.73478 10 6 10C6.26522 10 6.51959 9.96492 6.70712 9.90249C6.89466 9.84006 7 9.75538 7 9.66708V2.32297C6.99818 2.27989 6.97086 2.23736 6.91959 2.1978C6.86832 2.15825 6.79412 2.12244 6.70123 2.09245C6.60834 2.06245 6.49859 2.03885 6.37827 2.02299C6.25794 2.00714 6.12939 1.99934 6 2.00004Z" fill="#20C997"/>
<path d="M9.6675 5H2.3325C2.24432 5 2.15974 5.10537 2.09739 5.29291C2.03503 5.48044 2 5.73478 2 6C2 6.26522 2.03503 6.51959 2.09739 6.70712C2.15974 6.89466 2.24432 7 2.3325 7H9.6675C9.75568 7 9.84026 6.89466 9.90261 6.70712C9.96497 6.51959 10 6.26522 10 6C10 5.73478 9.96497 5.48044 9.90261 5.29291C9.84026 5.10537 9.75568 5 9.6675 5Z" fill="#20C997"/>
<circle cx="6" cy="6" r="5.75" stroke="#20C997" stroke-width="0.5"/>
</svg>
