<svg width="16" height="16" viewBox="0 0 16 16" fill="none" xmlns="http://www.w3.org/2000/svg">
<path d="M10.3333 5.66667H6.13333C6.00957 5.66667 5.89087 5.71583 5.80335 5.80335C5.71583 5.89087 5.66667 6.00957 5.66667 6.13333V11.1111M5.66667 15H10.3333H5.66667ZM5.66667 15V11.1111V15ZM5.66667 15H1.46667C1.3429 15 1.2242 14.9508 1.13668 14.8633C1.04917 14.7758 1 14.6571 1 14.5333V11.5778C1 11.454 1.04917 11.3353 1.13668 11.2478C1.2242 11.1603 1.3429 11.1111 1.46667 11.1111H5.66667V15ZM10.3333 15V5.66667V15ZM10.3333 15H14.5333C14.6571 15 14.7758 14.9508 14.8633 14.8633C14.9508 14.7758 15 14.6571 15 14.5333V1.46667C15 1.3429 14.9508 1.2242 14.8633 1.13668C14.7758 1.04917 14.6571 1 14.5333 1H10.8C10.6762 1 10.5575 1.04917 10.47 1.13668C10.3825 1.2242 10.3333 1.3429 10.3333 1.46667V5.66667V15Z" stroke="#ADB4D2" stroke-width="1.5"/>
</svg>
