<svg width="19" height="18" viewBox="0 0 19 18" fill="none" xmlns="http://www.w3.org/2000/svg">
<path d="M18.0053 14.7854H16.7196V13.4997H17.3624V10.9283H14.791V11.5711H13.5053V10.2854C13.5053 10.1149 13.573 9.95143 13.6936 9.83087C13.8141 9.71031 13.9776 9.64258 14.1481 9.64258H18.0053C18.1758 9.64258 18.3393 9.71031 18.4598 9.83087C18.5804 9.95143 18.6481 10.1149 18.6481 10.2854V14.1426C18.6481 14.3131 18.5804 14.4766 18.4598 14.5971C18.3393 14.7177 18.1758 14.7854 18.0053 14.7854Z" fill="#ADB4D2"/>
<path d="M14.791 18.0003H10.9338C10.7633 18.0003 10.5998 17.9325 10.4793 17.812C10.3587 17.6914 10.291 17.5279 10.291 17.3574V13.5003C10.291 13.3298 10.3587 13.1663 10.4793 13.0457C10.5998 12.9252 10.7633 12.8574 10.9338 12.8574H14.791C14.9615 12.8574 15.125 12.9252 15.2456 13.0457C15.3661 13.1663 15.4338 13.3298 15.4338 13.5003V17.3574C15.4338 17.5279 15.3661 17.6914 15.2456 17.812C15.125 17.9325 14.9615 18.0003 14.791 18.0003ZM11.5767 16.7146H14.1481V14.1431H11.5767V16.7146Z" fill="#ADB4D2"/>
<path d="M9.00527 11.4799C8.54077 11.3588 8.11952 11.1099 7.78935 10.7615C7.45918 10.4131 7.23333 9.97904 7.13744 9.50869C7.04155 9.03835 7.07946 8.55055 7.24687 8.10067C7.41428 7.65079 7.70448 7.25687 8.08452 6.96363C8.46456 6.67039 8.91921 6.48959 9.39683 6.44176C9.87446 6.39392 10.3559 6.48097 10.7866 6.69302C11.2172 6.90507 11.5798 7.23362 11.8331 7.64137C12.0864 8.04911 12.2203 8.51971 12.2196 8.99973H13.5053C13.506 8.26417 13.2964 7.54374 12.9012 6.92338C12.506 6.30302 11.9416 5.8086 11.2747 5.49841C10.6077 5.18823 9.866 5.07521 9.13693 5.1727C8.40787 5.27018 7.72188 5.5741 7.15985 6.04861C6.59782 6.52313 6.18318 7.14845 5.96484 7.85085C5.7465 8.55325 5.73355 9.30344 5.92751 10.013C6.12148 10.7225 6.51428 11.3617 7.0596 11.8554C7.60491 12.349 8.28 12.6764 9.00527 12.799V11.4799Z" fill="#ADB4D2"/>
<path d="M17.9346 7.425L16.4496 8.73L15.5367 7.81714L17.086 6.45429L15.5688 3.83143L13.3574 4.57714C12.8394 4.14596 12.2527 3.80479 11.6217 3.56786L11.1653 1.28571H8.13099L7.67456 3.56786C7.03852 3.79816 6.44859 4.13993 5.93241 4.57714L3.72741 3.83143L2.21027 6.45429L3.95884 7.99071C3.83991 8.65616 3.83991 9.33741 3.95884 10.0029L2.21027 11.5457L3.72741 14.1686L5.93884 13.4229C6.45686 13.854 7.04358 14.1952 7.67456 14.4321L8.13099 16.7143H9.00527V18H8.13099C7.83369 17.9998 7.54566 17.8965 7.31593 17.7078C7.08619 17.5191 6.92896 17.2566 6.87099 16.965L6.54313 15.345C6.25208 15.203 5.97075 15.042 5.70099 14.8629L4.13884 15.39C4.006 15.4332 3.86711 15.4549 3.72741 15.4543C3.50159 15.4558 3.27945 15.3971 3.08394 15.2841C2.88843 15.171 2.72663 15.0079 2.61527 14.8114L1.09813 12.1886C0.948078 11.9308 0.892319 11.6289 0.940403 11.3345C0.988488 11.0401 1.13742 10.7716 1.3617 10.575L2.59599 9.495C2.58313 9.32786 2.5767 9.16714 2.5767 9C2.5767 8.83286 2.58956 8.67214 2.60241 8.51143L1.3617 7.425C1.13742 7.22837 0.988488 6.95987 0.940403 6.6655C0.892319 6.37114 0.948078 6.06921 1.09813 5.81143L2.61527 3.18857C2.72663 2.99211 2.88843 2.82895 3.08394 2.71594C3.27945 2.60292 3.50159 2.54416 3.72741 2.54571C3.86711 2.54507 4.006 2.56677 4.13884 2.61L5.69456 3.13714C5.96653 2.95798 6.25 2.79692 6.54313 2.655L6.87099 1.035C6.92896 0.743407 7.08619 0.480917 7.31593 0.292209C7.54566 0.103501 7.83369 0.000238823 8.13099 0H11.1653C11.4626 0.000238823 11.7506 0.103501 11.9803 0.292209C12.2101 0.480917 12.3673 0.743407 12.4253 1.035L12.7531 2.655C13.0442 2.79695 13.3255 2.95802 13.5953 3.13714L15.1574 2.61C15.2903 2.56677 15.4291 2.54507 15.5688 2.54571C15.7947 2.54416 16.0168 2.60292 16.2123 2.71594C16.4078 2.82895 16.5696 2.99211 16.681 3.18857L18.1981 5.81143C18.3482 6.06921 18.4039 6.37114 18.3559 6.6655C18.3078 6.95987 18.1588 7.22837 17.9346 7.425Z" fill="#ADB4D2"/>
</svg>
