<svg width="18" height="18" viewBox="0 0 18 18" fill="none" xmlns="http://www.w3.org/2000/svg">
<path d="M9 5.44444C7.52711 5.44444 6.33333 6.24 6.33333 7.22222C6.33333 8.20444 7.52711 9 9 9C10.4729 9 11.6667 9.79556 11.6667 10.7778C11.6667 11.76 10.4729 12.5556 9 12.5556V5.44444ZM9 5.44444C9.98667 5.44444 10.8489 5.80178 11.3102 6.33333L9 5.44444ZM9 5.44444V4.55556V5.44444ZM9 5.44444V12.5556V5.44444ZM9 12.5556V13.4444V12.5556ZM9 12.5556C8.01333 12.5556 7.15111 12.1982 6.68978 11.6667L9 12.5556ZM17 9C17 10.0506 16.7931 11.0909 16.391 12.0615C15.989 13.0321 15.3997 13.914 14.6569 14.6569C13.914 15.3997 13.0321 15.989 12.0615 16.391C11.0909 16.7931 10.0506 17 9 17C7.94943 17 6.90914 16.7931 5.93853 16.391C4.96793 15.989 4.08601 15.3997 3.34315 14.6569C2.60028 13.914 2.011 13.0321 1.60896 12.0615C1.20693 11.0909 1 10.0506 1 9C1 6.87827 1.84285 4.84344 3.34315 3.34315C4.84344 1.84285 6.87827 1 9 1C11.1217 1 13.1566 1.84285 14.6569 3.34315C16.1571 4.84344 17 6.87827 17 9Z" stroke="#ADB4D2" stroke-width="1.7" stroke-linecap="round" stroke-linejoin="round"/>
</svg>
