<svg width="75" height="50" viewBox="0 0 75 50" fill="none" xmlns="http://www.w3.org/2000/svg">
<path d="M37.6355 34.1394C40.6541 31.5851 42.8185 28.1594 43.8355 24.3267C44.8524 20.4939 44.6726 16.4395 43.3206 12.7129C41.9685 8.98631 39.5095 5.76785 36.2769 3.49378C33.0442 1.2197 29.1943 0 25.249 0C21.3038 0 17.4539 1.2197 14.2212 3.49378C10.9886 5.76785 8.52961 8.98631 7.17753 12.7129C5.82545 16.4395 5.6457 20.4939 6.66264 24.3267C7.67958 28.1594 9.84403 31.5851 12.8626 34.1394C7.96675 36.3659 3.7527 39.8692 0.657679 44.2857C0.384992 44.6751 0.191257 45.1147 0.0875374 45.5793C-0.0161826 46.044 -0.0278569 46.5247 0.053181 46.9939C0.134219 47.4631 0.306382 47.9117 0.559841 48.314C0.813299 48.7164 1.14309 49.0645 1.53038 49.3387C2.31255 49.8924 3.28146 50.1111 4.22396 49.9465C5.16645 49.782 6.00533 49.2477 6.55605 48.4613C8.66417 45.4456 11.4631 42.9842 14.7164 41.285C17.9697 39.5858 21.582 38.6987 25.2481 38.6986C28.9141 38.6984 32.5264 39.5853 35.7799 41.2842C39.0334 42.9831 41.8325 45.4442 43.9408 48.4598C44.2136 48.8492 44.5599 49.1807 44.96 49.4356C45.3602 49.6904 45.8064 49.8635 46.273 49.945C46.7397 50.0264 47.2178 50.0147 47.68 49.9104C48.1422 49.8061 48.5794 49.6113 48.9667 49.3371C49.354 49.0629 49.6837 48.7147 49.9372 48.3123C50.1906 47.91 50.3628 47.4614 50.4438 46.9921C50.5248 46.5229 50.5131 46.0422 50.4094 45.5775C50.3057 45.1129 50.1119 44.6733 49.8392 44.2838C46.7443 39.8682 42.5307 36.3656 37.6355 34.1394ZM13.2263 19.3572C13.2263 16.9664 13.9314 14.6292 15.2525 12.6413C16.5736 10.6534 18.4513 9.104 20.6481 8.18906C22.845 7.27413 25.2624 7.03474 27.5946 7.50117C29.9268 7.9676 32.069 9.1189 33.7504 10.8095C35.4318 12.5001 36.5769 14.654 37.0408 16.9989C37.5047 19.3438 37.2666 21.7743 36.3566 23.9832C35.4467 26.192 33.9057 28.08 31.9285 29.4082C29.9514 30.7365 27.6269 31.4455 25.249 31.4455C22.0615 31.4419 19.0056 30.1671 16.7516 27.9009C14.4977 25.6347 13.2299 22.5621 13.2263 19.3572ZM73.47 49.3371C73.0827 49.6113 72.6455 49.8062 72.1833 49.9106C71.7211 50.0149 71.243 50.0267 70.7763 49.9453C70.3096 49.8638 69.8634 49.6907 69.4632 49.4358C69.0631 49.1809 68.7168 48.8492 68.4441 48.4598C66.3332 45.447 63.5337 42.9879 60.281 41.2893C57.0282 39.5906 53.4174 38.7021 49.7521 38.6985C48.7955 38.6985 47.878 38.3164 47.2016 37.6363C46.5252 36.9562 46.1452 36.0338 46.1452 35.072C46.1452 34.1102 46.5252 33.1878 47.2016 32.5077C47.878 31.8276 48.7955 31.4455 49.7521 31.4455C51.4689 31.4434 53.1653 31.0717 54.7273 30.3553C56.2893 29.6389 57.6805 28.5945 58.8075 27.2923C59.9344 25.9901 60.771 24.4603 61.2607 22.8059C61.7505 21.1515 61.8822 19.4107 61.647 17.7009C61.4118 15.991 60.8151 14.3516 59.897 12.893C58.9789 11.4343 57.7608 10.1903 56.3246 9.24459C54.8884 8.29887 53.2674 7.67339 51.5706 7.41022C49.8739 7.14705 48.1408 7.2523 46.4879 7.71888C45.567 7.97933 44.5809 7.8613 43.7466 7.39076C42.9123 6.92022 42.298 6.1357 42.039 5.20981C41.78 4.28391 41.8973 3.29247 42.3653 2.4536C42.8333 1.61473 43.6136 0.997133 44.5345 0.736685C48.766 -0.464453 53.2791 -0.171296 57.3217 1.5673C61.3643 3.3059 64.6922 6.38492 66.7509 10.2913C68.8096 14.1976 69.4747 18.6953 68.6353 23.0349C67.796 27.3745 65.5029 31.2938 62.1382 34.1397C67.0335 36.3658 71.2472 39.8683 74.3422 44.2838C74.8929 45.0702 75.1104 46.0443 74.9469 46.9919C74.7833 47.9395 74.252 48.783 73.47 49.3368V49.3371Z" fill="#20C997"/>
</svg>
