<svg width="15" height="15" viewBox="0 0 15 15" fill="none" xmlns="http://www.w3.org/2000/svg">
<path d="M3.75 5.99826H5.25C5.44891 5.99826 5.63968 5.91927 5.78033 5.77865C5.92098 5.63804 6 5.44733 6 5.24848C6 5.04962 5.92098 4.85891 5.78033 4.7183C5.63968 4.57769 5.44891 4.4987 5.25 4.4987H3.75C3.55109 4.4987 3.36032 4.57769 3.21967 4.7183C3.07902 4.85891 3 5.04962 3 5.24848C3 5.44733 3.07902 5.63804 3.21967 5.77865C3.36032 5.91927 3.55109 5.99826 3.75 5.99826ZM14.25 1.49957H8.25V0.749783C8.25 0.550928 8.17098 0.360218 8.03033 0.219606C7.88968 0.0789947 7.69891 0 7.5 0C7.30109 0 7.11032 0.0789947 6.96967 0.219606C6.82902 0.360218 6.75 0.550928 6.75 0.749783V1.49957H0.75C0.551088 1.49957 0.360322 1.57856 0.21967 1.71917C0.0790176 1.85978 0 2.05049 0 2.24935V9.74717C0 10.3437 0.237053 10.9159 0.65901 11.3377C1.08097 11.7595 1.65326 11.9965 2.25 11.9965H5.6925L3.9675 13.7135C3.8972 13.7832 3.84141 13.8662 3.80333 13.9575C3.76526 14.0489 3.74565 14.1469 3.74565 14.2459C3.74565 14.3448 3.76526 14.4429 3.80333 14.5342C3.84141 14.6256 3.8972 14.7085 3.9675 14.7782C4.03722 14.8485 4.12017 14.9043 4.21157 14.9423C4.30296 14.9804 4.40099 15 4.5 15C4.59901 15 4.69704 14.9804 4.78843 14.9423C4.87983 14.9043 4.96278 14.8485 5.0325 14.7782L6.75 13.0537V14.2459C6.75 14.4447 6.82902 14.6354 6.96967 14.776C7.11032 14.9167 7.30109 14.9957 7.5 14.9957C7.69891 14.9957 7.88968 14.9167 8.03033 14.776C8.17098 14.6354 8.25 14.4447 8.25 14.2459V13.0537L9.9675 14.7782C10.0372 14.8485 10.1202 14.9043 10.2116 14.9423C10.303 14.9804 10.401 15 10.5 15C10.599 15 10.697 14.9804 10.7884 14.9423C10.8798 14.9043 10.9628 14.8485 11.0325 14.7782C11.1028 14.7085 11.1586 14.6256 11.1967 14.5342C11.2347 14.4429 11.2543 14.3448 11.2543 14.2459C11.2543 14.1469 11.2347 14.0489 11.1967 13.9575C11.1586 13.8662 11.1028 13.7832 11.0325 13.7135L9.3075 11.9965H12.75C13.3467 11.9965 13.919 11.7595 14.341 11.3377C14.7629 10.9159 15 10.3437 15 9.74717V2.24935C15 2.05049 14.921 1.85978 14.7803 1.71917C14.6397 1.57856 14.4489 1.49957 14.25 1.49957ZM13.5 9.74717C13.5 9.94603 13.421 10.1367 13.2803 10.2774C13.1397 10.418 12.9489 10.497 12.75 10.497H2.25C2.05109 10.497 1.86032 10.418 1.71967 10.2774C1.57902 10.1367 1.5 9.94603 1.5 9.74717V2.99913H13.5V9.74717ZM3.75 8.99739H8.25C8.44891 8.99739 8.63968 8.9184 8.78033 8.77779C8.92098 8.63717 9 8.44646 9 8.24761C9 8.04875 8.92098 7.85804 8.78033 7.71743C8.63968 7.57682 8.44891 7.49783 8.25 7.49783H3.75C3.55109 7.49783 3.36032 7.57682 3.21967 7.71743C3.07902 7.85804 3 8.04875 3 8.24761C3 8.44646 3.07902 8.63717 3.21967 8.77779C3.36032 8.9184 3.55109 8.99739 3.75 8.99739Z" fill="#ADB4D2"/>
</svg>
